<svg width="55" height="55" viewBox="0 0 55 55" fill="none" xmlns="http://www.w3.org/2000/svg">
<path d="M27.5 50.4167C40.1564 50.4167 50.4166 40.1565 50.4166 27.5C50.4166 14.8435 40.1564 4.58337 27.5 4.58337C14.8434 4.58337 4.58331 14.8435 4.58331 27.5C4.58331 40.1565 14.8434 50.4167 27.5 50.4167Z" stroke="#EFF0F0" stroke-width="1.1" stroke-linecap="round" stroke-linejoin="round"/>
<path d="M32.8472 43.5417V39.2723C32.9045 38.563 32.8061 37.8499 32.5584 37.1805C32.3109 36.5111 31.9197 35.9006 31.4112 35.3898C36.2084 34.8691 41.25 33.0988 41.25 24.9767C41.2496 22.8996 40.4291 20.9023 38.9584 19.3981C39.6548 17.581 39.6055 15.5725 38.8209 13.7899C38.8209 13.7899 37.018 13.2692 32.8472 15.9915C29.3455 15.0674 25.6545 15.0674 22.1528 15.9915C17.9819 13.2692 16.1792 13.7899 16.1792 13.7899C15.3944 15.5725 15.3452 17.581 16.0417 19.3981C14.5599 20.9135 13.7386 22.9288 13.75 25.0211C13.75 33.0839 18.7917 34.8542 23.5888 35.4342C23.0863 35.94 22.6986 36.5431 22.4512 37.2045C22.2037 37.8657 22.1021 38.5701 22.1528 39.2723V43.5417" stroke="#EFF0F0" stroke-width="1.1" stroke-linecap="round" stroke-linejoin="round"/>
<path d="M22.1528 40.5667C17.5694 42.0143 13.75 40.5667 11.4583 36.1039" stroke="#EFF0F0" stroke-width="1.1" stroke-linecap="round" stroke-linejoin="round"/>
</svg>
