<svg width="55" height="55" viewBox="0 0 55 55" fill="none" xmlns="http://www.w3.org/2000/svg">
<path d="M27.5 36.6667C32.5625 36.6667 36.6666 32.5626 36.6666 27.5C36.6666 22.4374 32.5625 18.3334 27.5 18.3334C22.4374 18.3334 18.3333 22.4374 18.3333 27.5C18.3333 32.5626 22.4374 36.6667 27.5 36.6667Z" stroke="#EFF0F0" stroke-width="1.1" stroke-linecap="round" stroke-linejoin="round"/>
<path d="M6.875 36.6667V18.3333C6.875 12.0051 12.0051 6.875 18.3333 6.875H36.6667C42.9949 6.875 48.125 12.0051 48.125 18.3333V36.6667C48.125 42.9949 42.9949 48.125 36.6667 48.125H18.3333C12.0051 48.125 6.875 42.9949 6.875 36.6667Z" stroke="#EFF0F0" stroke-width="1.1"/>
<path d="M40.1042 14.9188L40.1271 14.8933" stroke="#EFF0F0" stroke-width="1.1" stroke-linecap="round" stroke-linejoin="round"/>
</svg>
