<svg width="48" height="23" viewBox="0 0 48 23" fill="none" xmlns="http://www.w3.org/2000/svg">
<path d="M2.89814 22.2301C2.47814 22.2301 2.13614 22.0921 1.87214 21.8161C1.62014 21.5521 1.49414 21.2161 1.49414 20.8081V6.01209C1.49414 5.60409 1.62014 5.26809 1.87214 5.00409C2.13614 4.72809 2.47814 4.59009 2.89814 4.59009H5.68814V5.83209H3.34814C3.02414 5.83209 2.86214 6.01209 2.86214 6.37209V20.4481C2.86214 20.8081 3.02414 20.9881 3.34814 20.9881H5.68814V22.2301H2.89814ZM10.3699 18.2521C9.48197 18.2521 8.70197 18.0661 8.02997 17.6941C7.35797 17.3101 6.83597 16.7761 6.46397 16.0921C6.09197 15.4081 5.90597 14.6161 5.90597 13.7161V13.5001C5.90597 12.5881 6.09197 11.7901 6.46397 11.1061C6.83597 10.4221 7.35197 9.89409 8.01197 9.52209C8.67197 9.13809 9.42797 8.94609 10.2799 8.94609C11.1079 8.94609 11.8399 9.12609 12.4759 9.48609C13.1119 9.83409 13.6099 10.3381 13.9699 10.9981C14.3299 11.6581 14.5099 12.4321 14.5099 13.3201V13.9681H7.32797C7.36397 14.9161 7.66997 15.6601 8.24597 16.2001C8.82197 16.7281 9.54197 16.9921 10.4059 16.9921C11.1619 16.9921 11.7439 16.8181 12.1519 16.4701C12.5599 16.1221 12.8719 15.7081 13.0879 15.2281L14.3119 15.8221C14.1319 16.1941 13.8799 16.5661 13.5559 16.9381C13.2439 17.3101 12.8299 17.6221 12.3139 17.8741C11.8099 18.1261 11.1619 18.2521 10.3699 18.2521ZM7.34597 12.7981H13.0699C13.0219 11.9821 12.7399 11.3461 12.2239 10.8901C11.7199 10.4341 11.0719 10.2061 10.2799 10.2061C9.47597 10.2061 8.81597 10.4341 8.29997 10.8901C7.78397 11.3461 7.46597 11.9821 7.34597 12.7981ZM14.6528 22.2301V20.9881H16.9928C17.3168 20.9881 17.4788 20.8081 17.4788 20.4481V6.37209C17.4788 6.01209 17.3168 5.83209 16.9928 5.83209H14.6528V4.59009H17.4608C17.8688 4.59009 18.1988 4.72809 18.4508 5.00409C18.7148 5.26809 18.8468 5.60409 18.8468 6.01209V20.8081C18.8468 21.2161 18.7148 21.5521 18.4508 21.8161C18.1988 22.0921 17.8688 22.2301 17.4608 22.2301H14.6528ZM24.8221 18.2521C23.9341 18.2521 23.1481 18.0661 22.4641 17.6941C21.7921 17.3221 21.2641 16.8001 20.8801 16.1281C20.5081 15.4441 20.3221 14.6401 20.3221 13.7161V13.4821C20.3221 12.5701 20.5081 11.7721 20.8801 11.0881C21.2641 10.4041 21.7921 9.87609 22.4641 9.50409C23.1481 9.13209 23.9341 8.94609 24.8221 8.94609C25.7101 8.94609 26.4901 9.13209 27.1621 9.50409C27.8461 9.87609 28.3741 10.4041 28.7461 11.0881C29.1301 11.7721 29.3221 12.5701 29.3221 13.4821V13.7161C29.3221 14.6401 29.1301 15.4441 28.7461 16.1281C28.3741 16.8001 27.8461 17.3221 27.1621 17.6941C26.4901 18.0661 25.7101 18.2521 24.8221 18.2521ZM24.8221 16.9741C25.7581 16.9741 26.5021 16.6801 27.0541 16.0921C27.6181 15.4921 27.9001 14.6881 27.9001 13.6801V13.5181C27.9001 12.5101 27.6181 11.7121 27.0541 11.1241C26.5021 10.5241 25.7581 10.2241 24.8221 10.2241C23.8981 10.2241 23.1541 10.5241 22.5901 11.1241C22.0261 11.7121 21.7441 12.5101 21.7441 13.5181V13.6801C21.7441 14.6881 22.0261 15.4921 22.5901 16.0921C23.1541 16.6801 23.8981 16.9741 24.8221 16.9741ZM34.3471 18.2521C33.2551 18.2521 32.3311 18.0001 31.5751 17.4961C30.8311 16.9921 30.3811 16.1941 30.2251 15.1021L31.5751 14.7961C31.6711 15.3721 31.8511 15.8281 32.1151 16.1641C32.3791 16.4881 32.7031 16.7221 33.0871 16.8661C33.4831 16.9981 33.9031 17.0641 34.3471 17.0641C35.0071 17.0641 35.5291 16.9321 35.9131 16.6681C36.2971 16.4041 36.4891 16.0501 36.4891 15.6061C36.4891 15.1501 36.3031 14.8321 35.9311 14.6521C35.5711 14.4601 35.0731 14.3041 34.4371 14.1841L33.6991 14.0581C33.1351 13.9621 32.6191 13.8121 32.1511 13.6081C31.6831 13.4041 31.3111 13.1281 31.0351 12.7801C30.7591 12.4321 30.6211 11.9941 30.6211 11.4661C30.6211 10.6741 30.9271 10.0561 31.5391 9.61209C32.1511 9.16809 32.9611 8.94609 33.9691 8.94609C34.9651 8.94609 35.7691 9.17409 36.3811 9.63009C37.0051 10.0741 37.4071 10.7041 37.5871 11.5201L36.2551 11.8621C36.1471 11.2261 35.8891 10.7821 35.4811 10.5301C35.0731 10.2661 34.5691 10.1341 33.9691 10.1341C33.3691 10.1341 32.8951 10.2481 32.5471 10.4761C32.1991 10.6921 32.0251 11.0161 32.0251 11.4481C32.0251 11.8681 32.1871 12.1801 32.5111 12.3841C32.8471 12.5761 33.2911 12.7201 33.8431 12.8161L34.5811 12.9421C35.2051 13.0501 35.7631 13.2001 36.2551 13.3921C36.7591 13.5721 37.1551 13.8361 37.4431 14.1841C37.7431 14.5321 37.8931 14.9881 37.8931 15.5521C37.8931 16.4161 37.5691 17.0821 36.9211 17.5501C36.2851 18.0181 35.4271 18.2521 34.3471 18.2521ZM42.7592 18.2521C41.6672 18.2521 40.7432 18.0001 39.9872 17.4961C39.2432 16.9921 38.7932 16.1941 38.6372 15.1021L39.9872 14.7961C40.0832 15.3721 40.2632 15.8281 40.5272 16.1641C40.7912 16.4881 41.1152 16.7221 41.4992 16.8661C41.8952 16.9981 42.3152 17.0641 42.7592 17.0641C43.4192 17.0641 43.9412 16.9321 44.3252 16.6681C44.7092 16.4041 44.9012 16.0501 44.9012 15.6061C44.9012 15.1501 44.7152 14.8321 44.3432 14.6521C43.9832 14.4601 43.4852 14.3041 42.8492 14.1841L42.1112 14.0581C41.5472 13.9621 41.0312 13.8121 40.5632 13.6081C40.0952 13.4041 39.7232 13.1281 39.4472 12.7801C39.1712 12.4321 39.0332 11.9941 39.0332 11.4661C39.0332 10.6741 39.3392 10.0561 39.9512 9.61209C40.5632 9.16809 41.3732 8.94609 42.3812 8.94609C43.3772 8.94609 44.1812 9.17409 44.7932 9.63009C45.4172 10.0741 45.8192 10.7041 45.9992 11.5201L44.6672 11.8621C44.5592 11.2261 44.3012 10.7821 43.8932 10.5301C43.4852 10.2661 42.9812 10.1341 42.3812 10.1341C41.7812 10.1341 41.3072 10.2481 40.9592 10.4761C40.6112 10.6921 40.4372 11.0161 40.4372 11.4481C40.4372 11.8681 40.5992 12.1801 40.9232 12.3841C41.2592 12.5761 41.7032 12.7201 42.2552 12.8161L42.9932 12.9421C43.6172 13.0501 44.1752 13.2001 44.6672 13.3921C45.1712 13.5721 45.5672 13.8361 45.8552 14.1841C46.1552 14.5321 46.3052 14.9881 46.3052 15.5521C46.3052 16.4161 45.9812 17.0821 45.3332 17.5501C44.6972 18.0181 43.8392 18.2521 42.7592 18.2521Z" fill="black"/>
</svg>
