<svg xmlns="http://www.w3.org/2000/svg" version="1.1" xmlns:xlink="http://www.w3.org/1999/xlink" xmlns:svgjs="http://svgjs.com/svgjs" width="18" height="19"><svg width="18" height="19" viewBox="0 0 18 19" fill="none" xmlns="http://www.w3.org/2000/svg">
<path d="M1.898 18.23C1.478 18.23 1.136 18.092 0.872 17.816C0.62 17.552 0.494 17.216 0.494 16.808V2.012C0.494 1.604 0.62 1.268 0.872 1.004C1.136 0.727999 1.478 0.589999 1.898 0.589999H4.688V1.832H2.348C2.024 1.832 1.862 2.012 1.862 2.372V16.448C1.862 16.808 2.024 16.988 2.348 16.988H4.688V18.23H1.898ZM9.36983 14.252C8.48183 14.252 7.70183 14.066 7.02983 13.694C6.35783 13.31 5.83583 12.776 5.46383 12.092C5.09183 11.408 4.90583 10.616 4.90583 9.716V9.5C4.90583 8.588 5.09183 7.79 5.46383 7.106C5.83583 6.422 6.35183 5.894 7.01183 5.522C7.67183 5.138 8.42783 4.946 9.27983 4.946C10.1078 4.946 10.8398 5.126 11.4758 5.486C12.1118 5.834 12.6098 6.338 12.9698 6.998C13.3298 7.658 13.5098 8.432 13.5098 9.32V9.968H6.32783C6.36383 10.916 6.66983 11.66 7.24583 12.2C7.82183 12.728 8.54183 12.992 9.40583 12.992C10.1618 12.992 10.7438 12.818 11.1518 12.47C11.5598 12.122 11.8718 11.708 12.0878 11.228L13.3118 11.822C13.1318 12.194 12.8798 12.566 12.5558 12.938C12.2438 13.31 11.8298 13.622 11.3138 13.874C10.8098 14.126 10.1618 14.252 9.36983 14.252ZM6.34583 8.798H12.0698C12.0218 7.982 11.7398 7.346 11.2238 6.89C10.7198 6.434 10.0718 6.206 9.27983 6.206C8.47583 6.206 7.81583 6.434 7.29983 6.89C6.78383 7.346 6.46583 7.982 6.34583 8.798ZM13.6527 18.23V16.988H15.9927C16.3167 16.988 16.4787 16.808 16.4787 16.448V2.372C16.4787 2.012 16.3167 1.832 15.9927 1.832H13.6527V0.589999H16.4607C16.8687 0.589999 17.1987 0.727999 17.4507 1.004C17.7147 1.268 17.8467 1.604 17.8467 2.012V16.808C17.8467 17.216 17.7147 17.552 17.4507 17.816C17.1987 18.092 16.8687 18.23 16.4607 18.23H13.6527Z" fill="black"></path>
</svg><style>@media (prefers-color-scheme: light) { :root { filter: none; } }
</style></svg>